<svg xmlns="http://www.w3.org/2000/svg" viewBox="0 0 32 32">
  <!-- Cup body -->
  <path d="M9 3h14v11c0 4.5-3 7.5-7 8.5-4-1-7-4-7-8.5V3z" fill="#F59E0B"/>
  <!-- Left handle -->
  <path d="M9 7H6C4.3 7 3 8.6 3 10.5S4.3 14 6 14h3" fill="none" stroke="#F59E0B" stroke-width="2.5" stroke-linecap="round"/>
  <!-- Right handle -->
  <path d="M23 7h3c1.7 0 3 1.6 3 3.5S27.7 14 26 14h-3" fill="none" stroke="#F59E0B" stroke-width="2.5" stroke-linecap="round"/>
  <!-- Stem -->
  <rect x="13.5" y="22.5" width="5" height="3" rx="0.5" fill="#F59E0B"/>
  <!-- Base -->
  <rect x="10" y="25.5" width="12" height="3.5" rx="1.5" fill="#F59E0B"/>
  <!-- Shine highlight -->
  <path d="M12 6c0-0.5 0.5-1 1-1h2c0.5 0 1 0.5 1 1v5c0 2-1 3.5-2 4-1-0.5-2-2-2-4V6z" fill="#FCD34D" opacity="0.6"/>
</svg>
